<?xml version="1.0" encoding="UTF-8" standalone="no"?>
<!DOCTYPE svg PUBLIC "-//W3C//DTD SVG 1.1//EN" "http://www.w3.org/Graphics/SVG/1.1/DTD/svg11.dtd">
<svg width="100%" height="100%" viewBox="0 0 400 400" version="1.1" xmlns="http://www.w3.org/2000/svg" xmlns:xlink="http://www.w3.org/1999/xlink" xml:space="preserve" xmlns:serif="http://www.serif.com/" style="fill-rule:evenodd;clip-rule:evenodd;stroke-linejoin:round;stroke-miterlimit:2;">
    <path id="path0" d="M165.593,65.348C88.572,94.737 6.25,175.097 6.25,220.891C6.25,242.415 23.927,254.08 47.151,247.881L58.742,244.787L60.608,256.459C67.375,298.772 150.765,258.078 197.454,189.679C218.528,158.805 224.238,137.184 214.016,126.963C209.788,122.735 209.965,121.014 215.675,110.848C239.269,68.841 214.77,46.583 165.593,65.348M212.094,73.68C221.726,82.248 195.595,122.065 175.845,128.914C140.153,141.293 84.584,189.064 69.791,220.087C65.653,228.764 62.221,231.068 48.555,234.347C-27.593,252.614 58.106,128.045 150,86.89C156.016,84.196 165.859,79.797 171.875,77.115C188.206,69.833 206.055,68.309 212.094,73.68M206.25,143.178C206.25,150.245 192.134,176.637 180.037,192.188C153.758,225.968 128.14,245.371 91.201,259.473C70.131,267.516 64.164,243.552 85.034,234.706C115.264,221.893 168.378,177.91 192.007,146.124C200.72,134.402 206.25,133.259 206.25,143.178M172.336,149.219C156.817,170.678 87.5,225.978 87.5,216.899C87.5,206.396 160.14,145.067 177.557,140.865C178.103,140.733 175.754,144.492 172.336,149.219M250.869,201.527C175.959,235.574 175.413,350.443 250,384.135C279.793,397.594 331.509,391.343 352.551,371.739C361.226,363.657 362.5,363.994 362.5,374.375C362.5,385.299 367.621,390.625 378.125,390.625C392.804,390.625 393.752,386.927 393.716,329.844C393.68,272.245 390.614,255.048 376.613,233.891C352.441,197.364 293.439,182.178 250.869,201.527M331.089,233.077C382.174,266.883 367.887,348.783 308.591,362.053C233.19,378.927 193.519,277.433 257.853,232.243C276.337,219.259 310.802,219.652 331.089,233.077" style="fill:white;"/>
</svg>
