<?xml version="1.0" encoding="UTF-8" standalone="no"?>
<!DOCTYPE svg PUBLIC "-//W3C//DTD SVG 1.1//EN" "http://www.w3.org/Graphics/SVG/1.1/DTD/svg11.dtd">
<svg width="100%" height="100%" viewBox="0 0 1101 313" version="1.1" xmlns="http://www.w3.org/2000/svg" xmlns:xlink="http://www.w3.org/1999/xlink" xml:space="preserve" xmlns:serif="http://www.serif.com/" style="fill-rule:evenodd;clip-rule:evenodd;stroke-linejoin:round;stroke-miterlimit:2;">
    <g transform="matrix(25.1065,0,0,25.1065,-13763.4,-10692.1)">
        <g transform="matrix(12,0,0,12,547.59,438.194)">
            <path d="M0.306,0.012C0.264,0.012 0.227,0.005 0.196,-0.008C0.164,-0.021 0.137,-0.04 0.116,-0.064C0.094,-0.088 0.078,-0.117 0.067,-0.15C0.056,-0.183 0.051,-0.219 0.051,-0.259C0.051,-0.299 0.057,-0.336 0.069,-0.369C0.08,-0.402 0.097,-0.431 0.118,-0.456C0.139,-0.48 0.166,-0.499 0.197,-0.513C0.228,-0.526 0.262,-0.533 0.3,-0.533C0.323,-0.533 0.347,-0.531 0.37,-0.527C0.393,-0.523 0.416,-0.517 0.437,-0.508L0.416,-0.429C0.402,-0.436 0.386,-0.441 0.368,-0.445C0.349,-0.449 0.33,-0.451 0.309,-0.451C0.257,-0.451 0.217,-0.435 0.19,-0.402C0.162,-0.369 0.148,-0.322 0.148,-0.259C0.148,-0.231 0.151,-0.205 0.158,-0.182C0.164,-0.159 0.174,-0.139 0.188,-0.122C0.201,-0.105 0.219,-0.093 0.24,-0.084C0.261,-0.075 0.287,-0.07 0.318,-0.07C0.343,-0.07 0.365,-0.072 0.385,-0.077C0.405,-0.082 0.421,-0.087 0.432,-0.092L0.445,-0.014C0.44,-0.011 0.432,-0.008 0.422,-0.005C0.412,-0.002 0.401,0.001 0.388,0.004C0.375,0.006 0.362,0.008 0.348,0.01C0.333,0.011 0.319,0.012 0.306,0.012Z" style="fill-rule:nonzero;"/>
        </g>
        <g transform="matrix(12,0,0,12,553.17,438.194)">
            <path d="M0.256,-0.067C0.278,-0.067 0.298,-0.068 0.315,-0.069C0.332,-0.07 0.346,-0.071 0.357,-0.074L0.357,-0.229C0.35,-0.232 0.339,-0.235 0.325,-0.238C0.31,-0.24 0.291,-0.241 0.27,-0.241C0.256,-0.241 0.241,-0.24 0.226,-0.238C0.21,-0.236 0.196,-0.232 0.183,-0.226C0.169,-0.219 0.159,-0.211 0.15,-0.2C0.141,-0.189 0.137,-0.174 0.137,-0.156C0.137,-0.123 0.148,-0.099 0.169,-0.087C0.19,-0.074 0.219,-0.067 0.256,-0.067ZM0.248,-0.533C0.285,-0.533 0.317,-0.528 0.343,-0.519C0.368,-0.509 0.389,-0.495 0.405,-0.478C0.42,-0.46 0.431,-0.439 0.438,-0.415C0.445,-0.39 0.448,-0.363 0.448,-0.334L0.448,-0.009C0.44,-0.008 0.429,-0.006 0.415,-0.004C0.4,-0.001 0.384,0.001 0.366,0.003C0.348,0.005 0.329,0.007 0.308,0.009C0.287,0.01 0.266,0.011 0.245,0.011C0.216,0.011 0.189,0.008 0.164,0.002C0.139,-0.004 0.118,-0.014 0.1,-0.027C0.082,-0.04 0.068,-0.057 0.058,-0.078C0.048,-0.099 0.043,-0.125 0.043,-0.155C0.043,-0.184 0.049,-0.208 0.061,-0.229C0.072,-0.25 0.088,-0.266 0.108,-0.279C0.128,-0.292 0.151,-0.301 0.178,-0.307C0.205,-0.313 0.233,-0.316 0.262,-0.316C0.271,-0.316 0.281,-0.316 0.291,-0.315C0.301,-0.314 0.311,-0.312 0.32,-0.311C0.329,-0.309 0.336,-0.307 0.343,-0.306C0.35,-0.305 0.354,-0.304 0.357,-0.303L0.357,-0.329C0.357,-0.344 0.355,-0.36 0.352,-0.375C0.349,-0.39 0.343,-0.403 0.334,-0.415C0.325,-0.426 0.314,-0.436 0.299,-0.443C0.284,-0.45 0.264,-0.453 0.24,-0.453C0.209,-0.453 0.183,-0.451 0.16,-0.447C0.136,-0.442 0.119,-0.438 0.108,-0.433L0.097,-0.51C0.109,-0.515 0.129,-0.521 0.157,-0.526C0.185,-0.531 0.215,-0.533 0.248,-0.533Z" style="fill-rule:nonzero;"/>
        </g>
        <g transform="matrix(12,0,0,12,559.434,438.194)">
            <path d="M0.08,-0.505C0.101,-0.51 0.13,-0.516 0.165,-0.522C0.2,-0.528 0.241,-0.531 0.287,-0.531C0.328,-0.531 0.363,-0.525 0.39,-0.514C0.417,-0.502 0.439,-0.486 0.456,-0.465C0.472,-0.444 0.483,-0.418 0.49,-0.389C0.497,-0.36 0.5,-0.327 0.5,-0.292L0.5,-0L0.407,-0L0.407,-0.272C0.407,-0.304 0.405,-0.331 0.401,-0.354C0.396,-0.377 0.389,-0.395 0.379,-0.409C0.369,-0.423 0.356,-0.433 0.339,-0.44C0.322,-0.446 0.302,-0.449 0.277,-0.449C0.267,-0.449 0.257,-0.449 0.246,-0.448C0.235,-0.447 0.225,-0.447 0.216,-0.446C0.206,-0.444 0.197,-0.443 0.19,-0.442C0.182,-0.441 0.176,-0.44 0.173,-0.439L0.173,-0L0.08,-0L0.08,-0.505Z" style="fill-rule:nonzero;"/>
        </g>
        <g transform="matrix(12,0,0,12,566.322,438.194)">
            <path d="M0.416,-0.41C0.405,-0.419 0.388,-0.428 0.367,-0.437C0.346,-0.446 0.322,-0.45 0.297,-0.45C0.27,-0.45 0.248,-0.445 0.229,-0.436C0.21,-0.426 0.194,-0.413 0.182,-0.396C0.17,-0.379 0.161,-0.358 0.156,-0.335C0.151,-0.312 0.148,-0.287 0.148,-0.26C0.148,-0.199 0.163,-0.153 0.193,-0.12C0.223,-0.087 0.263,-0.07 0.313,-0.07C0.338,-0.07 0.36,-0.071 0.377,-0.074C0.394,-0.076 0.407,-0.078 0.416,-0.081L0.416,-0.41ZM0.416,-0.76L0.509,-0.776L0.509,-0.015C0.488,-0.009 0.46,-0.003 0.427,0.003C0.394,0.009 0.355,0.012 0.312,0.012C0.272,0.012 0.236,0.006 0.204,-0.007C0.172,-0.02 0.145,-0.038 0.122,-0.061C0.099,-0.084 0.082,-0.113 0.07,-0.147C0.057,-0.18 0.051,-0.218 0.051,-0.26C0.051,-0.3 0.056,-0.337 0.067,-0.37C0.077,-0.403 0.092,-0.432 0.112,-0.456C0.132,-0.48 0.157,-0.499 0.186,-0.512C0.215,-0.525 0.248,-0.532 0.285,-0.532C0.315,-0.532 0.341,-0.528 0.365,-0.52C0.388,-0.512 0.405,-0.504 0.416,-0.497L0.416,-0.76Z" style="fill-rule:nonzero;"/>
        </g>
        <g transform="matrix(12,0,0,12,573.39,438.194)">
            <path d="M0.051,-0.259C0.051,-0.305 0.058,-0.345 0.071,-0.38C0.084,-0.414 0.102,-0.442 0.124,-0.465C0.146,-0.488 0.171,-0.505 0.2,-0.516C0.229,-0.527 0.258,-0.533 0.288,-0.533C0.358,-0.533 0.412,-0.511 0.449,-0.468C0.486,-0.424 0.505,-0.357 0.505,-0.268L0.505,-0.253C0.505,-0.246 0.505,-0.24 0.504,-0.235L0.148,-0.235C0.152,-0.181 0.168,-0.14 0.195,-0.112C0.222,-0.084 0.265,-0.07 0.323,-0.07C0.356,-0.07 0.383,-0.073 0.406,-0.079C0.428,-0.084 0.445,-0.09 0.456,-0.095L0.469,-0.017C0.458,-0.011 0.438,-0.005 0.41,0.002C0.381,0.009 0.349,0.012 0.313,0.012C0.268,0.012 0.229,0.005 0.196,-0.009C0.163,-0.022 0.135,-0.041 0.114,-0.065C0.093,-0.089 0.077,-0.118 0.067,-0.151C0.056,-0.184 0.051,-0.22 0.051,-0.259ZM0.408,-0.31C0.409,-0.352 0.398,-0.387 0.377,-0.414C0.355,-0.441 0.325,-0.454 0.287,-0.454C0.266,-0.454 0.247,-0.45 0.231,-0.442C0.214,-0.433 0.2,-0.422 0.189,-0.409C0.178,-0.396 0.169,-0.38 0.163,-0.363C0.156,-0.346 0.152,-0.328 0.15,-0.31L0.408,-0.31Z" style="fill-rule:nonzero;"/>
        </g>
        <g transform="matrix(12,0,0,12,580.098,438.194)">
            <path d="M0.236,0.01C0.179,0.009 0.138,-0.004 0.114,-0.027C0.09,-0.05 0.078,-0.087 0.078,-0.136L0.078,-0.76L0.171,-0.776L0.171,-0.151C0.171,-0.136 0.172,-0.123 0.175,-0.113C0.178,-0.103 0.182,-0.095 0.188,-0.089C0.194,-0.083 0.202,-0.079 0.212,-0.076C0.222,-0.073 0.234,-0.07 0.249,-0.068L0.236,0.01Z" style="fill-rule:nonzero;"/>
        </g>
        <g transform="matrix(12,0,0,12,586.65,438.194)">
            <path d="M0.256,-0.067C0.278,-0.067 0.298,-0.068 0.315,-0.069C0.332,-0.07 0.346,-0.071 0.357,-0.074L0.357,-0.229C0.35,-0.232 0.339,-0.235 0.325,-0.238C0.31,-0.24 0.291,-0.241 0.27,-0.241C0.256,-0.241 0.241,-0.24 0.226,-0.238C0.21,-0.236 0.196,-0.232 0.183,-0.226C0.169,-0.219 0.159,-0.211 0.15,-0.2C0.141,-0.189 0.137,-0.174 0.137,-0.156C0.137,-0.123 0.148,-0.099 0.169,-0.087C0.19,-0.074 0.219,-0.067 0.256,-0.067ZM0.248,-0.533C0.285,-0.533 0.317,-0.528 0.343,-0.519C0.368,-0.509 0.389,-0.495 0.405,-0.478C0.42,-0.46 0.431,-0.439 0.438,-0.415C0.445,-0.39 0.448,-0.363 0.448,-0.334L0.448,-0.009C0.44,-0.008 0.429,-0.006 0.415,-0.004C0.4,-0.001 0.384,0.001 0.366,0.003C0.348,0.005 0.329,0.007 0.308,0.009C0.287,0.01 0.266,0.011 0.245,0.011C0.216,0.011 0.189,0.008 0.164,0.002C0.139,-0.004 0.118,-0.014 0.1,-0.027C0.082,-0.04 0.068,-0.057 0.058,-0.078C0.048,-0.099 0.043,-0.125 0.043,-0.155C0.043,-0.184 0.049,-0.208 0.061,-0.229C0.072,-0.25 0.088,-0.266 0.108,-0.279C0.128,-0.292 0.151,-0.301 0.178,-0.307C0.205,-0.313 0.233,-0.316 0.262,-0.316C0.271,-0.316 0.281,-0.316 0.291,-0.315C0.301,-0.314 0.311,-0.312 0.32,-0.311C0.329,-0.309 0.336,-0.307 0.343,-0.306C0.35,-0.305 0.354,-0.304 0.357,-0.303L0.357,-0.329C0.357,-0.344 0.355,-0.36 0.352,-0.375C0.349,-0.39 0.343,-0.403 0.334,-0.415C0.325,-0.426 0.314,-0.436 0.299,-0.443C0.284,-0.45 0.264,-0.453 0.24,-0.453C0.209,-0.453 0.183,-0.451 0.16,-0.447C0.136,-0.442 0.119,-0.438 0.108,-0.433L0.097,-0.51C0.109,-0.515 0.129,-0.521 0.157,-0.526C0.185,-0.531 0.215,-0.533 0.248,-0.533Z" style="fill-rule:nonzero;"/>
        </g>
    </g>
    <g transform="matrix(7.45238,0,0,7.45238,784.967,-14.9048)">
        <rect x="15" y="2" width="1" height="1" style="fill:rgb(22,29,128);"/>
        <rect x="15" y="3" width="1" height="1" style="fill:rgb(171,50,50);"/>
        <rect x="19" y="3" width="1" height="1" style="fill:rgb(22,29,128);"/>
        <rect x="23" y="3" width="1" height="1" style="fill:rgb(22,29,128);"/>
        <rect x="16" y="4" width="1" height="1" style="fill:rgb(171,50,50);"/>
        <rect x="18" y="4" width="1" height="1" style="fill:rgb(4,14,16);"/>
        <rect x="19" y="4" width="1" height="1" style="fill:rgb(171,50,50);"/>
        <path d="M14,4L14,7L15,7L15,4L14,4Z" style="fill:rgb(171,50,50);"/>
        <path d="M17,6L18,6L18,7L19,7L19,5L17,5L17,6Z" style="fill:rgb(171,50,50);"/>
        <path d="M16,8L16,7L17,7L17,8L18,8L18,6L17,6L17,5L16,5L16,4L15,4L15,8L16,8Z" style="fill:rgb(212,79,38);"/>
        <path d="M19,5L19,8L20,8L20,7L21,7L21,6L20,6L20,5L19,5Z" style="fill:rgb(212,79,38);"/>
        <rect x="20" y="7" width="1" height="1" style="fill:rgb(239,126,69);"/>
        <path d="M20,6L21,6L21,8L22,8L22,5L20,5L20,6Z" style="fill:rgb(171,50,50);"/>
        <path d="M22,5L22,8L23,8L23,5L22,5Z" style="fill:rgb(212,79,38);"/>
        <path d="M22,5L23,5L23,8L24,8L24,4L22,4L22,5Z" style="fill:rgb(171,50,50);"/>
        <rect x="20" y="8" width="1" height="1" style="fill:rgb(171,50,50);"/>
        <path d="M13,7L13,11L14,11L14,7L13,7Z" style="fill:rgb(212,79,38);"/>
        <path d="M24,8L24,11L25,11L25,8L24,8Z" style="fill:rgb(212,79,38);"/>
        <rect x="17" y="11" width="1" height="1" style="fill:rgb(240,193,136);"/>
        <rect x="21" y="11" width="1" height="1" style="fill:rgb(240,193,136);"/>
        <path d="M24,8L21,8L21,9L20,9L20,8L19,8L19,7L18,7L18,8L17,8L17,7L16,7L16,8L15,8L15,7L14,7L14,11L13,11L13,12L15,12L15,11L16,11L16,12L17,12L17,11L18,11L18,12L19,12L19,11L20,11L20,12L21,12L21,11L22,11L22,12L23,12L23,11L24,11L24,8Z" style="fill:rgb(239,126,69);"/>
        <path d="M12,11L12,14L13,14L13,11L12,11Z" style="fill:rgb(239,126,69);"/>
        <rect x="17" y="13" width="1" height="1" style="fill:rgb(133,144,149);"/>
        <rect x="20" y="13" width="1" height="1" style="fill:rgb(133,144,149);"/>
        <path d="M24,12L25,12L25,14L26,14L26,11L24,11L24,12Z" style="fill:rgb(239,126,69);"/>
        <path d="M18,12L16,12L16,15L17,15L17,13L18,13L18,12Z" style="fill:rgb(147,183,186);"/>
        <rect x="17" y="14" width="1" height="1" style="fill:rgb(119,144,151);"/>
        <rect x="20" y="14" width="1" height="1" style="fill:rgb(119,144,151);"/>
        <path d="M20,13L21,13L21,15L22,15L22,12L20,12L20,13Z" style="fill:rgb(147,183,186);"/>
        <path d="M12,14L12,16L13,16L13,14L12,14Z" style="fill:rgb(222,176,119);"/>
        <path d="M25,14L25,16L26,16L26,14L25,14Z" style="fill:rgb(222,176,119);"/>
        <path d="M13,16L13,18L14,18L14,16L13,16Z" style="fill:rgb(222,176,119);"/>
        <path d="M18,18L20,18L20,17L18,17L18,18Z" style="fill:rgb(222,176,119);"/>
        <path d="M24,16L24,18L25,18L25,16L24,16Z" style="fill:rgb(222,176,119);"/>
        <rect x="14" y="18" width="1" height="1" style="fill:rgb(222,176,119);"/>
        <path d="M15,19L17,19L17,18L15,18L15,19Z" style="fill:rgb(229,182,125);"/>
        <path d="M20,18L20,17L18,17L18,18L20,18ZM14,16L14,18L17,18L17,19L21,19L21,18L24,18L24,16L25,16L25,12L24,12L24,11L23,11L23,12L22,12L22,15L20,15L20,11L19,11L19,12L18,12L18,15L16,15L16,11L15,11L15,12L13,12L13,16L14,16Z" style="fill:rgb(240,193,136);"/>
        <path d="M21,19L23,19L23,18L21,18L21,19Z" style="fill:rgb(229,182,125);"/>
        <rect x="23" y="18" width="1" height="1" style="fill:rgb(222,176,119);"/>
        <path d="M15,20L17,20L17,19L15,19L15,20Z" style="fill:rgb(222,176,119);"/>
        <path d="M17,20L21,20L21,19L17,19L17,20Z" style="fill:rgb(229,182,125);"/>
        <path d="M21,20L23,20L23,19L21,19L21,20Z" style="fill:rgb(222,176,119);"/>
        <rect x="13" y="20" width="1" height="1" style="fill:rgb(192,187,176);"/>
        <path d="M14,21L17,21L17,20L14,20L14,21Z" style="fill:rgb(216,213,207);"/>
        <path d="M17,21L21,21L21,20L17,20L17,21Z" style="fill:rgb(222,176,119);"/>
        <path d="M21,21L24,21L24,20L21,20L21,21Z" style="fill:rgb(216,213,207);"/>
        <rect x="24" y="20" width="1" height="1" style="fill:rgb(192,187,176);"/>
        <path d="M11,22L13,22L13,21L11,21L11,22Z" style="fill:rgb(168,161,146);"/>
        <rect x="13" y="21" width="1" height="1" style="fill:rgb(201,196,185);"/>
        <path d="M17,22L21,22L21,21L17,21L17,22Z" style="fill:rgb(216,213,207);"/>
        <rect x="24" y="21" width="1" height="1" style="fill:rgb(201,196,185);"/>
        <path d="M25,22L27,22L27,21L25,21L25,22Z" style="fill:rgb(168,161,146);"/>
        <path d="M21,21L21,23L23,23L23,22L24,22L24,21L21,21Z" style="fill:rgb(235,232,226);"/>
        <rect x="25" y="22" width="1" height="1" style="fill:rgb(187,182,165);"/>
        <path d="M10,22L10,24L11,24L11,22L10,22Z" style="fill:rgb(168,161,146);"/>
        <rect x="25" y="23" width="1" height="1" style="fill:rgb(187,182,165);"/>
        <path d="M27,22L27,24L28,24L28,22L27,22Z" style="fill:rgb(168,161,146);"/>
        <path d="M12,22L12,25L13,25L13,22L12,22Z" style="fill:rgb(187,182,165);"/>
        <path d="M16,23L17,23L17,25L18,25L18,23L19,23L19,22L17,22L17,21L14,21L14,22L16,22L16,23Z" style="fill:rgb(235,232,226);"/>
        <rect x="25" y="24" width="1" height="1" style="fill:rgb(187,182,165);"/>
        <path d="M9,24L9,27L10,27L10,24L9,24Z" style="fill:rgb(168,161,146);"/>
        <path d="M28,24L28,27L29,27L29,24L28,24Z" style="fill:rgb(168,161,146);"/>
        <path d="M11,27L12,27L12,22L11,22L11,24L10,24L10,27L9,27L9,28L11,28L11,27Z" style="fill:rgb(207,203,184);"/>
        <path d="M29,27L28,27L28,24L27,24L27,22L26,22L26,27L27,27L27,28L29,28L29,27Z" style="fill:rgb(207,203,184);"/>
        <path d="M11,27L11,28L9,28L9,27L8,27L8,28L7,28L7,29L12,29L12,27L11,27Z" style="fill:rgb(168,161,146);"/>
        <path d="M29,27L29,28L27,28L27,27L26,27L26,29L31,29L31,28L30,28L30,27L29,27Z" style="fill:rgb(168,161,146);"/>
        <path d="M10,30L12,30L12,29L10,29L10,30Z" style="fill:rgb(206,128,82);"/>
        <path d="M26,30L28,30L28,29L26,29L26,30Z" style="fill:rgb(206,128,82);"/>
        <path d="M8,29L8,31L9,31L9,29L8,29Z" style="fill:rgb(102,51,60);"/>
        <path d="M10,30L10,29L9,29L9,31L12,31L12,30L10,30Z" style="fill:rgb(154,90,71);"/>
        <path d="M12,29L12,31L13,31L13,29L12,29Z" style="fill:rgb(102,51,60);"/>
        <path d="M25,29L25,31L26,31L26,29L25,29Z" style="fill:rgb(102,51,60);"/>
        <path d="M26,31L29,31L29,29L28,29L28,30L26,30L26,31Z" style="fill:rgb(154,90,71);"/>
        <path d="M29,29L29,31L30,31L30,29L29,29Z" style="fill:rgb(102,51,60);"/>
        <path d="M9,32L12,32L12,31L9,31L9,32Z" style="fill:rgb(102,51,60);"/>
        <path d="M26,32L29,32L29,31L26,31L26,32Z" style="fill:rgb(102,51,60);"/>
        <path d="M16,22L14,22L14,43L24,43L24,22L23,22L23,23L21,23L21,22L19,22L19,23L18,23L18,25L17,25L17,23L16,23L16,22Z" style="fill:rgb(207,203,184);"/>
        <path d="M13,44L25,44L25,27L26,27L26,25L25,25L25,22L24,22L24,43L14,43L14,22L13,22L13,25L12,25L12,27L13,27L13,44Z" style="fill:rgb(168,161,146);"/>
    </g>
</svg>
